<svg id="Layer_1" data-name="Layer 1" xmlns="http://www.w3.org/2000/svg" viewBox="0 0 40 40"><defs><style>.cls-1{fill:#f8f8f8;stroke:#f8f8f8;stroke-miterlimit:10;stroke-width:0.5px;}</style></defs><title>bag</title><path class="cls-1" d="M35.79,35H4.21V21.89A10.2,10.2,0,0,1,14.37,11.67H25.63A10.2,10.2,0,0,1,35.79,21.89ZM5.55,33.66h28.9V21.89A8.86,8.86,0,0,0,25.63,13H14.37a8.86,8.86,0,0,0-8.82,8.88Z"/><path class="cls-1" d="M28.78,16H27.44c0-5.33-3.34-9.67-7.44-9.67S12.55,10.68,12.55,16H11.22c0-6.07,3.94-11,8.78-11S28.78,9.94,28.78,16Z"/></svg>