<svg id="Layer_1" data-name="Layer 1" xmlns="http://www.w3.org/2000/svg" viewBox="0 0 40 40"><defs><style>.cls-1{fill:#f8f8f8;stroke:#f8f8f8;stroke-miterlimit:10;stroke-width:0.5px;}</style></defs><title>bag</title><path class="cls-1" d="M39.5,39H.5V22.39A12.77,12.77,0,0,1,13.05,9.44H27a12.77,12.77,0,0,1,12.55,13ZM2.15,37.3h35.7V22.39A11.09,11.09,0,0,0,27,11.14H13.05A11.09,11.09,0,0,0,2.15,22.39Z"/><path class="cls-1" d="M30.84,15H29.19C29.19,8.2,25.07,2.7,20,2.7S10.8,8.2,10.8,15H9.16C9.16,7.26,14,1,20,1S30.84,7.26,30.84,15Z"/></svg>