<svg id="Layer_1" data-name="Layer 1" xmlns="http://www.w3.org/2000/svg" viewBox="0 0 20 20"><defs><style>.cls-1{fill:#f8f8f8;stroke:#f8f8f8;stroke-miterlimit:10;stroke-width:1.5px;}</style></defs><title>Bulgari_logo _최종</title><path class="cls-1" d="M14.49,7.37c-.12,0-.21-1-.21-1.17a4.28,4.28,0,0,0-8.56,0c0,.12-.09,1.17-.21,1.17s-.21-1-.21-1.17a4.7,4.7,0,1,1,9.4,0C14.7,6.32,14.61,7.37,14.49,7.37Z"/><path class="cls-1" d="M16.86,18.5H3.14a.22.22,0,0,1-.21-.21V4.57a.22.22,0,0,1,.21-.21H16.86a.22.22,0,0,1,.21.21V18.29A.22.22,0,0,1,16.86,18.5Zm-13.5-.43H16.64V4.79H3.36Z"/></svg>