<svg id="Layer_1" data-name="Layer 1" xmlns="http://www.w3.org/2000/svg" viewBox="0 0 20 20"><defs><style>.cls-1{fill:#f8f8f8;stroke:#f8f8f8;stroke-miterlimit:10;stroke-width:1.5px;}</style></defs><title>Bulgari_logo _최종</title><path class="cls-1" d="M10,18a.17.17,0,0,1-.1,0,21.78,21.78,0,0,1-4.25-3.88C2.89,11.1,2.17,9.71,1.74,8a5.32,5.32,0,0,1,.68-4.11A4.46,4.46,0,0,1,5.77,2.05,4.06,4.06,0,0,1,9,2.78,3.43,3.43,0,0,1,10,4.3a3.43,3.43,0,0,1,1-1.52,4.06,4.06,0,0,1,3.19-.73h0a4.46,4.46,0,0,1,3.35,1.88A5.32,5.32,0,0,1,18.26,8c-.43,1.67-1.15,3.06-3.91,6.05A21.78,21.78,0,0,1,10.1,18,.17.17,0,0,1,10,18ZM6.53,2.41a5.85,5.85,0,0,0-.71,0A4.07,4.07,0,0,0,2.76,4.16a4.94,4.94,0,0,0-.63,3.78c.42,1.6,1.12,3,3.82,5.88A24,24,0,0,0,10,17.55a24,24,0,0,0,4.05-3.73c2.7-2.93,3.4-4.28,3.82-5.88a4.94,4.94,0,0,0-.63-3.78,4.07,4.07,0,0,0-3.06-1.71h0a3.72,3.72,0,0,0-2.88.64,3.35,3.35,0,0,0-1.1,2.12.2.2,0,0,1-.2.19h0a.2.2,0,0,1-.2-.19A3.35,3.35,0,0,0,8.7,3.09,3.35,3.35,0,0,0,6.53,2.41Z"/></svg>