<svg id="Layer_1" data-name="Layer 1" xmlns="http://www.w3.org/2000/svg" viewBox="0 0 40 40"><defs><style>.cls-1{fill:#f8f8f8;stroke:#f8f8f8;stroke-miterlimit:10;stroke-width:0.5px;}</style></defs><title>neck</title><path class="cls-1" d="M23.37,39H16.64l-4.73-5.13v-7.2l4.73-5.13h6.73l4.72,5.13v7.2Zm-6.2-1.22h5.66l4.05-4.38V27.14l-4.05-4.38H17.17l-4.05,4.38V33.4Z"/><path class="cls-1" d="M22.42,36.52H17.58L14.2,32.84V27.7L17.58,24h4.84L25.8,27.7v5.14ZM18.11,35.3h3.78l2.7-2.93v-4.2l-2.7-2.93H18.11l-2.7,2.93v4.2Z"/><path class="cls-1" d="M17.85,25.24a.61.61,0,0,1-.57-.39l-1-2.48a.61.61,0,0,1,.35-.79.62.62,0,0,1,.79.35l.94,2.48a.61.61,0,0,1-.35.79A.78.78,0,0,1,17.85,25.24Z"/><path class="cls-1" d="M22.15,25.24a.93.93,0,0,1-.22,0,.61.61,0,0,1-.35-.79l1-2.48a.61.61,0,1,1,1.14.44l-1,2.48A.63.63,0,0,1,22.15,25.24Z"/><path class="cls-1" d="M25.2,28.54A.61.61,0,0,1,25,27.38l2.28-1a.61.61,0,0,1,.8.31.6.6,0,0,1-.3.8l-2.28,1A.79.79,0,0,1,25.2,28.54Z"/><path class="cls-1" d="M14.8,28.54a.79.79,0,0,1-.25-.05l-2.28-1a.61.61,0,1,1,.49-1.11l2.29,1a.61.61,0,0,1-.25,1.16Z"/><path class="cls-1" d="M12.52,34.24a.61.61,0,0,1-.25-1.16l2.28-1a.62.62,0,0,1,.81.31.61.61,0,0,1-.31.8l-2.29,1A.69.69,0,0,1,12.52,34.24Z"/><path class="cls-1" d="M16.9,39a.6.6,0,0,1-.22,0,.61.61,0,0,1-.35-.78l1-2.48a.6.6,0,1,1,1.13.43l-.94,2.48A.62.62,0,0,1,16.9,39Z"/><path class="cls-1" d="M23.1,39a.63.63,0,0,1-.57-.39l-1-2.48a.61.61,0,0,1,.35-.79.62.62,0,0,1,.79.35l1,2.49a.61.61,0,0,1-.57.82Z"/><path class="cls-1" d="M27.48,34.24a.74.74,0,0,1-.25-.05l-2.28-1a.61.61,0,0,1-.31-.8.62.62,0,0,1,.81-.31l2.28,1a.61.61,0,0,1-.25,1.16Z"/><path class="cls-1" d="M12.51,27.53a.58.58,0,0,1-.26-.06C1.84,22.37.62,2.49.57,1.65A.61.61,0,0,1,1.14,1a.62.62,0,0,1,.64.57c0,.2,1.23,20,11,24.8a.61.61,0,0,1-.27,1.15Z"/><path class="cls-1" d="M27.48,27.52a.59.59,0,0,1-.54-.34.6.6,0,0,1,.28-.81c9.77-4.79,11-24.6,11-24.8a.61.61,0,0,1,1.21.07c0,.84-1.27,20.72-11.68,25.82A.66.66,0,0,1,27.48,27.52Z"/></svg>