<svg id="Layer_1" data-name="Layer 1" xmlns="http://www.w3.org/2000/svg" viewBox="0 0 40 40"><defs><style>.cls-1{fill:#f8f8f8;stroke:#f8f8f8;stroke-miterlimit:10;stroke-width:0.5px;}</style></defs><title>neck</title><path class="cls-1" d="M23.19,38H16.81l-4.48-4.86V26.32l4.48-4.86h6.38l4.47,4.86v6.82Zm-5.87-1.15h5.36l3.83-4.16V26.77l-3.83-4.16H17.32l-3.84,4.16v5.92Z"/><path class="cls-1" d="M22.29,35.65H17.71L14.5,32.17V27.29l3.21-3.48h4.58l3.21,3.48v4.88ZM18.21,34.5h3.58l2.56-2.78v-4L21.79,25H18.21l-2.56,2.78v4Z"/><path class="cls-1" d="M18,25a.58.58,0,0,1-.54-.37l-.89-2.35a.56.56,0,0,1,.33-.74.58.58,0,0,1,.74.33l.9,2.35a.57.57,0,0,1-.34.74A.45.45,0,0,1,18,25Z"/><path class="cls-1" d="M22,25a.52.52,0,0,1-.21,0,.58.58,0,0,1-.33-.74l.9-2.35a.58.58,0,0,1,.74-.33.56.56,0,0,1,.33.74l-.9,2.35A.56.56,0,0,1,22,25Z"/><path class="cls-1" d="M24.92,28.09a.57.57,0,0,1-.52-.34.58.58,0,0,1,.29-.76l2.16-1a.58.58,0,1,1,.47,1.05l-2.16,1A.69.69,0,0,1,24.92,28.09Z"/><path class="cls-1" d="M15.08,28.09a.69.69,0,0,1-.24-.05l-2.17-1A.58.58,0,0,1,13.14,26l2.17,1a.58.58,0,0,1,.29.76A.57.57,0,0,1,15.08,28.09Z"/><path class="cls-1" d="M12.91,33.49a.55.55,0,0,1-.52-.34.56.56,0,0,1,.28-.76l2.17-1a.58.58,0,0,1,.47,1l-2.17,1A.46.46,0,0,1,12.91,33.49Z"/><path class="cls-1" d="M17.06,38a.51.51,0,0,1-.2,0,.56.56,0,0,1-.33-.74l.89-2.35a.57.57,0,0,1,.74-.33.57.57,0,0,1,.34.74l-.9,2.35A.57.57,0,0,1,17.06,38Z"/><path class="cls-1" d="M22.94,38a.58.58,0,0,1-.54-.37l-.9-2.35a.58.58,0,0,1,.33-.74.56.56,0,0,1,.74.33l.9,2.35a.56.56,0,0,1-.33.74A.51.51,0,0,1,22.94,38Z"/><path class="cls-1" d="M27.09,33.49a.52.52,0,0,1-.24-.05l-2.16-1a.58.58,0,0,1,.47-1l2.16,1a.58.58,0,0,1,.29.76A.55.55,0,0,1,27.09,33.49Z"/><path class="cls-1" d="M12.91,27.14a.54.54,0,0,1-.25-.06C2.8,22.24,1.64,3.41,1.59,2.61a.58.58,0,0,1,1.15-.06c0,.19,1.17,19,10.42,23.5a.57.57,0,0,1-.25,1.09Z"/><path class="cls-1" d="M27.09,27.13a.59.59,0,0,1-.52-.32.57.57,0,0,1,.27-.77C36.09,21.5,37.25,2.73,37.26,2.54a.58.58,0,1,1,1.15.07c0,.8-1.21,19.63-11.07,24.46A.57.57,0,0,1,27.09,27.13Z"/></svg>