<svg id="Layer_1" data-name="Layer 1" xmlns="http://www.w3.org/2000/svg" viewBox="0 0 40 40"><defs><style>.cls-1{fill:#f8f8f8;stroke:#f8f8f8;stroke-miterlimit:10;stroke-width:0.5px;}</style></defs><title>ring</title><path class="cls-1" d="M20,39A13.93,13.93,0,1,1,33.93,25.07,13.95,13.95,0,0,1,20,39Zm0-26.65A12.72,12.72,0,1,0,32.72,25.07,12.74,12.74,0,0,0,20,12.35Z"/><path class="cls-1" d="M20,12.4,14.22,4.59,16.68,1l7,.09L26,4.74ZM15.7,4.56l4.35,5.84,4.43-5.73L23,2.29l-5.68-.08Z"/><rect class="cls-1" x="15.14" y="4.1" width="10.07" height="1.21"/><rect class="cls-1" x="18.1" y="1.87" width="1.21" height="8.83" transform="translate(-1.03 6.3) rotate(-18.61)"/><rect class="cls-1" x="16.98" y="5.84" width="9.07" height="1.21" transform="translate(8.36 24.64) rotate(-70.81)"/></svg>