<svg id="Layer_1" data-name="Layer 1" xmlns="http://www.w3.org/2000/svg" viewBox="0 0 40 40"><defs><style>.cls-1{fill:#f8f8f8;stroke:#f8f8f8;stroke-miterlimit:10;stroke-width:0.5px;}</style></defs><title>watch</title><path class="cls-1" d="M20,28.23A8.29,8.29,0,1,1,28.28,20,8.3,8.3,0,0,1,20,28.23Zm0-15.31a7,7,0,1,0,7,7A7,7,0,0,0,20,12.92Z"/><path class="cls-1" d="M25.12,20.11H19.38V14.37a.63.63,0,1,1,1.25,0v4.48h4.49a.63.63,0,0,1,.63.63A.63.63,0,0,1,25.12,20.11Z"/><path class="cls-1" d="M21,2.26a3.21,3.21,0,0,1,3.21,3.21v5.06a8.88,8.88,0,0,0-8.49,0V5.46A3.2,3.2,0,0,1,19,2.26H21M21,1H19A4.46,4.46,0,0,0,14.5,5.46v7.32h.27a7.64,7.64,0,0,1,10.46,0h.28V5.46A4.47,4.47,0,0,0,21,1Z"/><path class="cls-1" d="M24.25,29.47v5.07a3.2,3.2,0,0,1-3.2,3.2H19a3.2,3.2,0,0,1-3.2-3.2V29.47a8.88,8.88,0,0,0,8.49,0m1.26-2.25h-.28a7.64,7.64,0,0,1-10.46,0H14.5v7.32A4.46,4.46,0,0,0,19,39h2.09a4.46,4.46,0,0,0,4.46-4.46Z"/></svg>